<?xml version="1.0" encoding="utf-8" standalone="no"?>
<!DOCTYPE svg PUBLIC "-//W3C//DTD SVG 1.1//EN"
  "http://www.w3.org/Graphics/SVG/1.1/DTD/svg11.dtd">
<svg xmlns:xlink="http://www.w3.org/1999/xlink" width="524.286394pt" height="222.212812pt" viewBox="0 0 524.286394 222.212812" xmlns="http://www.w3.org/2000/svg" version="1.1">
 <metadata>
  <rdf:RDF xmlns:dc="http://purl.org/dc/elements/1.1/" xmlns:cc="http://creativecommons.org/ns#" xmlns:rdf="http://www.w3.org/1999/02/22-rdf-syntax-ns#">
   <cc:Work>
    <dc:type rdf:resource="http://purl.org/dc/dcmitype/StillImage"/>
    <dc:date>2026-07-14T21:03:18.610312</dc:date>
    <dc:format>image/svg+xml</dc:format>
    <dc:creator>
     <cc:Agent>
      <dc:title>Matplotlib v3.11.0, https://matplotlib.org/</dc:title>
     </cc:Agent>
    </dc:creator>
   </cc:Work>
  </rdf:RDF>
 </metadata>
 <defs>
  <style type="text/css">*{stroke-linejoin: round; stroke-linecap: butt}</style>
 </defs>
 <g id="figure_1">
  <g id="patch_1">
   <path d="M 0 222.212812 
L 524.286394 222.212812 
L 524.286394 0 
L 0 0 
z
" style="fill: #ffffff"/>
  </g>
  <g id="axes_1">
   <g id="patch_2">
    <path d="M 53.509295 183.527234 
L 231.621966 183.527234 
L 231.621966 62.47856 
L 53.509295 62.47856 
z
" style="fill: #ffffff"/>
   </g>
   <g id="matplotlib.axis_1">
    <g id="xtick_1">
     <g id="line2d_1">
      <defs>
       <path id="m4a4aa132f7" d="M 0 0 
L 0 3.5 
" style="stroke: #272727; stroke-width: 0.8"/>
      </defs>
      <g>
       <use xlink:href="#m4a4aa132f7" x="92.590133" y="183.527234" style="fill: #272727; stroke: #272727; stroke-width: 0.8"/>
      </g>
     </g>
     <g id="text_1">
      <text style="font-size: 6.8px; font-family: 'Arial', 'DejaVu Sans', 'Liberation Sans', sans-serif; fill: #272727" transform="translate(69.638008 196.374836)">False positive</text>
      <text style="font-size: 6.8px; font-family: 'Arial', 'DejaVu Sans', 'Liberation Sans', sans-serif; fill: #272727" transform="translate(70.37804 204.536695)">(pred merge,</text>
      <text style="font-size: 6.8px; font-family: 'Arial', 'DejaVu Sans', 'Liberation Sans', sans-serif; fill: #272727" transform="translate(71.189258 212.698555)">actually not)</text>
     </g>
    </g>
    <g id="xtick_2">
     <g id="line2d_2">
      <g>
       <use xlink:href="#m4a4aa132f7" x="192.541128" y="183.527234" style="fill: #272727; stroke: #272727; stroke-width: 0.8"/>
      </g>
     </g>
     <g id="text_2">
      <text style="font-size: 6.8px; font-family: 'Arial', 'DejaVu Sans', 'Liberation Sans', sans-serif; fill: #272727" transform="translate(168.054753 196.374836)">False negative</text>
      <text style="font-size: 6.8px; font-family: 'Arial', 'DejaVu Sans', 'Liberation Sans', sans-serif; fill: #272727" transform="translate(175.753628 204.536695)">(pred not,</text>
      <text style="font-size: 6.8px; font-family: 'Arial', 'DejaVu Sans', 'Liberation Sans', sans-serif; fill: #272727" transform="translate(165.715659 212.698555)">actually merge)</text>
     </g>
    </g>
   </g>
   <g id="matplotlib.axis_2">
    <g id="ytick_1">
     <g id="line2d_3">
      <path d="M 53.509295 183.527234 
L 231.621966 183.527234 
" clip-path="url(#pf8047696cc)" style="fill: none; stroke: #d9d9d9; stroke-width: 0.6; stroke-linecap: square"/>
     </g>
     <g id="line2d_4">
      <defs>
       <path id="m500f4ca7f9" d="M 0 0 
L -3.5 0 
" style="stroke: #272727; stroke-width: 0.8"/>
      </defs>
      <g>
       <use xlink:href="#m500f4ca7f9" x="53.509295" y="183.527234" style="fill: #272727; stroke: #272727; stroke-width: 0.8"/>
      </g>
     </g>
     <g id="text_3">
      <text style="font-size: 8px; font-family: 'Arial', 'DejaVu Sans', 'Liberation Sans', sans-serif; text-anchor: end; fill: #272727" x="46.509295" y="186.566297" transform="rotate(-0 46.509295 186.566297)">0</text>
     </g>
    </g>
    <g id="ytick_2">
     <g id="line2d_5">
      <path d="M 53.509295 163.352455 
L 231.621966 163.352455 
" clip-path="url(#pf8047696cc)" style="fill: none; stroke: #d9d9d9; stroke-width: 0.6; stroke-linecap: square"/>
     </g>
     <g id="line2d_6">
      <g>
       <use xlink:href="#m500f4ca7f9" x="53.509295" y="163.352455" style="fill: #272727; stroke: #272727; stroke-width: 0.8"/>
      </g>
     </g>
     <g id="text_4">
      <text style="font-size: 8px; font-family: 'Arial', 'DejaVu Sans', 'Liberation Sans', sans-serif; text-anchor: end; fill: #272727" x="46.509295" y="166.391518" transform="rotate(-0 46.509295 166.391518)">1</text>
     </g>
    </g>
    <g id="ytick_3">
     <g id="line2d_7">
      <path d="M 53.509295 143.177676 
L 231.621966 143.177676 
" clip-path="url(#pf8047696cc)" style="fill: none; stroke: #d9d9d9; stroke-width: 0.6; stroke-linecap: square"/>
     </g>
     <g id="line2d_8">
      <g>
       <use xlink:href="#m500f4ca7f9" x="53.509295" y="143.177676" style="fill: #272727; stroke: #272727; stroke-width: 0.8"/>
      </g>
     </g>
     <g id="text_5">
      <text style="font-size: 8px; font-family: 'Arial', 'DejaVu Sans', 'Liberation Sans', sans-serif; text-anchor: end; fill: #272727" x="46.509295" y="146.216739" transform="rotate(-0 46.509295 146.216739)">2</text>
     </g>
    </g>
    <g id="ytick_4">
     <g id="line2d_9">
      <path d="M 53.509295 123.002897 
L 231.621966 123.002897 
" clip-path="url(#pf8047696cc)" style="fill: none; stroke: #d9d9d9; stroke-width: 0.6; stroke-linecap: square"/>
     </g>
     <g id="line2d_10">
      <g>
       <use xlink:href="#m500f4ca7f9" x="53.509295" y="123.002897" style="fill: #272727; stroke: #272727; stroke-width: 0.8"/>
      </g>
     </g>
     <g id="text_6">
      <text style="font-size: 8px; font-family: 'Arial', 'DejaVu Sans', 'Liberation Sans', sans-serif; text-anchor: end; fill: #272727" x="46.509295" y="126.04196" transform="rotate(-0 46.509295 126.04196)">3</text>
     </g>
    </g>
    <g id="ytick_5">
     <g id="line2d_11">
      <path d="M 53.509295 102.828118 
L 231.621966 102.828118 
" clip-path="url(#pf8047696cc)" style="fill: none; stroke: #d9d9d9; stroke-width: 0.6; stroke-linecap: square"/>
     </g>
     <g id="line2d_12">
      <g>
       <use xlink:href="#m500f4ca7f9" x="53.509295" y="102.828118" style="fill: #272727; stroke: #272727; stroke-width: 0.8"/>
      </g>
     </g>
     <g id="text_7">
      <text style="font-size: 8px; font-family: 'Arial', 'DejaVu Sans', 'Liberation Sans', sans-serif; text-anchor: end; fill: #272727" x="46.509295" y="105.867181" transform="rotate(-0 46.509295 105.867181)">4</text>
     </g>
    </g>
    <g id="ytick_6">
     <g id="line2d_13">
      <path d="M 53.509295 82.653339 
L 231.621966 82.653339 
" clip-path="url(#pf8047696cc)" style="fill: none; stroke: #d9d9d9; stroke-width: 0.6; stroke-linecap: square"/>
     </g>
     <g id="line2d_14">
      <g>
       <use xlink:href="#m500f4ca7f9" x="53.509295" y="82.653339" style="fill: #272727; stroke: #272727; stroke-width: 0.8"/>
      </g>
     </g>
     <g id="text_8">
      <text style="font-size: 8px; font-family: 'Arial', 'DejaVu Sans', 'Liberation Sans', sans-serif; text-anchor: end; fill: #272727" x="46.509295" y="85.692402" transform="rotate(-0 46.509295 85.692402)">5</text>
     </g>
    </g>
    <g id="ytick_7">
     <g id="line2d_15">
      <path d="M 53.509295 62.47856 
L 231.621966 62.47856 
" clip-path="url(#pf8047696cc)" style="fill: none; stroke: #d9d9d9; stroke-width: 0.6; stroke-linecap: square"/>
     </g>
     <g id="line2d_16">
      <g>
       <use xlink:href="#m500f4ca7f9" x="53.509295" y="62.47856" style="fill: #272727; stroke: #272727; stroke-width: 0.8"/>
      </g>
     </g>
     <g id="text_9">
      <text style="font-size: 8px; font-family: 'Arial', 'DejaVu Sans', 'Liberation Sans', sans-serif; text-anchor: end; fill: #272727" x="46.509295" y="65.517623" transform="rotate(-0 46.509295 65.517623)">6</text>
     </g>
    </g>
    <g id="text_10">
     <text style="font-size: 8px; font-family: 'Arial', 'DejaVu Sans', 'Liberation Sans', sans-serif; text-anchor: middle; fill: #272727" x="35.49742" y="123.002897" transform="rotate(-90 35.49742 123.002897)">Mis-classified AI PRs (n = 5)</text>
    </g>
   </g>
   <g id="patch_3">
    <path d="M 53.509295 183.527234 
L 53.509295 62.47856 
" style="fill: none; stroke: #272727; stroke-width: 0.8; stroke-linejoin: miter; stroke-linecap: square"/>
   </g>
   <g id="patch_4">
    <path d="M 53.509295 183.527234 
L 231.621966 183.527234 
" style="fill: none; stroke: #272727; stroke-width: 0.8; stroke-linejoin: miter; stroke-linecap: square"/>
   </g>
   <g id="patch_5">
    <path d="M 61.605325 183.527234 
L 123.574942 183.527234 
L 123.574942 82.653339 
L 61.605325 82.653339 
z
" clip-path="url(#pf8047696cc)" style="fill: #c0433f; stroke: #ffffff; stroke-width: 0.8; stroke-linejoin: miter"/>
   </g>
   <g id="patch_6">
    <path d="M 161.556319 183.527234 
L 223.525936 183.527234 
L 223.525936 183.527234 
L 161.556319 183.527234 
z
" clip-path="url(#pf8047696cc)" style="fill: #8f8f8f; stroke: #ffffff; stroke-width: 0.8; stroke-linejoin: miter"/>
   </g>
   <g id="text_11">
    <text style="font-weight: 700; font-size: 9px; font-family: 'Arial', 'DejaVu Sans', 'Liberation Sans', sans-serif; text-anchor: middle; fill: #272727" x="92.590133" y="79.280743" transform="rotate(-0 92.590133 79.280743)">5</text>
   </g>
   <g id="text_12">
    <text style="font-weight: 700; font-size: 9px; font-family: 'Arial', 'DejaVu Sans', 'Liberation Sans', sans-serif; text-anchor: middle; fill: #272727" x="192.541128" y="180.154638" transform="rotate(-0 192.541128 180.154638)">0</text>
   </g>
   <g id="text_13">
    <text style="font-weight: 700; font-size: 11px; font-family: 'Arial', 'DejaVu Sans', 'Liberation Sans', sans-serif; text-anchor: start; fill: #272727" x="7.2" y="52.573061" transform="rotate(-0 7.2 52.573061)">a</text>
   </g>
   <g id="text_14">
    <text style="font-size: 8px; font-family: 'Arial', 'DejaVu Sans', 'Liberation Sans', sans-serif; text-anchor: middle; fill: #272727" x="142.565631" y="56.47856" transform="rotate(-0 142.565631 56.47856)">All five selected errors are over-optimistic</text>
   </g>
  </g>
  <g id="axes_2">
   <g id="line2d_17">
    <path d="M 244.678778 68.76378 
L 517.086394 68.76378 
" clip-path="url(#p8ac571cd0d)" style="fill: none; stroke: #d9d9d9; stroke-width: 0.8; stroke-linecap: square"/>
   </g>
   <g id="text_15">
    <text style="font-weight: 700; font-size: 6.4px; font-family: 'Arial', 'DejaVu Sans', 'Liberation Sans', sans-serif; text-anchor: start; fill: #8f8f8f" x="250.126931" y="64.432849" transform="rotate(-0 250.126931 64.432849)">AI pull request</text>
   </g>
   <g id="text_16">
    <text style="font-weight: 700; font-size: 6.4px; font-family: 'Arial', 'DejaVu Sans', 'Liberation Sans', sans-serif; text-anchor: middle; fill: #8f8f8f" x="364.538129" y="64.432849" transform="rotate(-0 364.538129 64.432849)">predicted</text>
   </g>
   <g id="text_17">
    <text style="font-weight: 700; font-size: 6.4px; font-family: 'Arial', 'DejaVu Sans', 'Liberation Sans', sans-serif; text-anchor: middle; fill: #8f8f8f" x="424.467805" y="64.432849" transform="rotate(-0 424.467805 64.432849)">actual</text>
   </g>
   <g id="text_18">
    <text style="font-weight: 700; font-size: 6.4px; font-family: 'Arial', 'DejaVu Sans', 'Liberation Sans', sans-serif; text-anchor: middle; fill: #8f8f8f" x="489.845632" y="64.432849" transform="rotate(-0 489.845632 64.432849)">context</text>
   </g>
   <g id="text_19">
    <text style="font-size: 7px; font-family: 'Arial', 'DejaVu Sans', 'Liberation Sans', sans-serif; text-anchor: start; fill: #272727" x="250.126931" y="80.592207" transform="rotate(-0 250.126931 80.592207)">pandas #66061</text>
   </g>
   <g id="text_20">
    <g id="patch_7">
     <path d="M 351.891129 83.573574 
L 377.185129 83.573574 
Q 378.785129 83.573574 378.785129 81.973574 
L 378.785129 75.573574 
Q 378.785129 73.973574 377.185129 73.973574 
L 351.891129 73.973574 
Q 350.291129 73.973574 350.291129 75.573574 
L 350.291129 81.973574 
Q 350.291129 83.573574 351.891129 83.573574 
z
" style="fill: #c0433f"/>
    </g>
    <text style="font-weight: 700; font-size: 6.4px; font-family: 'Arial', 'DejaVu Sans', 'Liberation Sans', sans-serif; text-anchor: middle; fill: #ffffff" x="364.538129" y="80.436074" transform="rotate(-0 364.538129 80.436074)">MERGE</text>
   </g>
   <g id="text_21">
    <g id="patch_8">
     <path d="M 405.832805 83.573824 
L 443.102805 83.573824 
Q 444.702805 83.573824 444.702805 81.973824 
L 444.702805 75.573324 
Q 444.702805 73.973324 443.102805 73.973324 
L 405.832805 73.973324 
Q 404.232805 73.973324 404.232805 75.573324 
L 404.232805 81.973824 
Q 404.232805 83.573824 405.832805 83.573824 
z
" style="fill: #ececec; stroke: #8f8f8f; stroke-width: 0.5; stroke-linejoin: miter"/>
    </g>
    <text style="font-size: 6.4px; font-family: 'Arial', 'DejaVu Sans', 'Liberation Sans', sans-serif; text-anchor: middle; fill: #272727" x="424.467805" y="80.436324" transform="rotate(-0 424.467805 80.436324)">not merged</text>
   </g>
   <g id="text_22">
    <text style="font-size: 6.6px; font-family: 'Arial', 'DejaVu Sans', 'Liberation Sans', sans-serif; text-anchor: middle; fill: #8f8f8f" x="489.845632" y="80.488027" transform="rotate(-0 489.845632 80.488027)">C1</text>
   </g>
   <g id="text_23">
    <text style="font-size: 7px; font-family: 'Arial', 'DejaVu Sans', 'Liberation Sans', sans-serif; text-anchor: start; fill: #272727" x="250.126931" y="103.870798" transform="rotate(-0 250.126931 103.870798)">pandas #66042</text>
   </g>
   <g id="text_24">
    <g id="patch_9">
     <path d="M 351.891129 106.852165 
L 377.185129 106.852165 
Q 378.785129 106.852165 378.785129 105.252165 
L 378.785129 98.852165 
Q 378.785129 97.252165 377.185129 97.252165 
L 351.891129 97.252165 
Q 350.291129 97.252165 350.291129 98.852165 
L 350.291129 105.252165 
Q 350.291129 106.852165 351.891129 106.852165 
z
" style="fill: #c0433f"/>
    </g>
    <text style="font-weight: 700; font-size: 6.4px; font-family: 'Arial', 'DejaVu Sans', 'Liberation Sans', sans-serif; text-anchor: middle; fill: #ffffff" x="364.538129" y="103.714665" transform="rotate(-0 364.538129 103.714665)">MERGE</text>
   </g>
   <g id="text_25">
    <g id="patch_10">
     <path d="M 405.832805 106.852415 
L 443.102805 106.852415 
Q 444.702805 106.852415 444.702805 105.252415 
L 444.702805 98.851915 
Q 444.702805 97.251915 443.102805 97.251915 
L 405.832805 97.251915 
Q 404.232805 97.251915 404.232805 98.851915 
L 404.232805 105.252415 
Q 404.232805 106.852415 405.832805 106.852415 
z
" style="fill: #ececec; stroke: #8f8f8f; stroke-width: 0.5; stroke-linejoin: miter"/>
    </g>
    <text style="font-size: 6.4px; font-family: 'Arial', 'DejaVu Sans', 'Liberation Sans', sans-serif; text-anchor: middle; fill: #272727" x="424.467805" y="103.714915" transform="rotate(-0 424.467805 103.714915)">not merged</text>
   </g>
   <g id="text_26">
    <text style="font-size: 6.6px; font-family: 'Arial', 'DejaVu Sans', 'Liberation Sans', sans-serif; text-anchor: middle; fill: #8f8f8f" x="489.845632" y="103.766618" transform="rotate(-0 489.845632 103.766618)">C1</text>
   </g>
   <g id="text_27">
    <text style="font-size: 7px; font-family: 'Arial', 'DejaVu Sans', 'Liberation Sans', sans-serif; text-anchor: start; fill: #272727" x="250.126931" y="127.149389" transform="rotate(-0 250.126931 127.149389)">pandas #65940</text>
   </g>
   <g id="text_28">
    <g id="patch_11">
     <path d="M 351.891129 130.130756 
L 377.185129 130.130756 
Q 378.785129 130.130756 378.785129 128.530756 
L 378.785129 122.130756 
Q 378.785129 120.530756 377.185129 120.530756 
L 351.891129 120.530756 
Q 350.291129 120.530756 350.291129 122.130756 
L 350.291129 128.530756 
Q 350.291129 130.130756 351.891129 130.130756 
z
" style="fill: #c0433f"/>
    </g>
    <text style="font-weight: 700; font-size: 6.4px; font-family: 'Arial', 'DejaVu Sans', 'Liberation Sans', sans-serif; text-anchor: middle; fill: #ffffff" x="364.538129" y="126.993256" transform="rotate(-0 364.538129 126.993256)">MERGE</text>
   </g>
   <g id="text_29">
    <g id="patch_12">
     <path d="M 405.832805 130.131006 
L 443.102805 130.131006 
Q 444.702805 130.131006 444.702805 128.531006 
L 444.702805 122.130506 
Q 444.702805 120.530506 443.102805 120.530506 
L 405.832805 120.530506 
Q 404.232805 120.530506 404.232805 122.130506 
L 404.232805 128.531006 
Q 404.232805 130.131006 405.832805 130.131006 
z
" style="fill: #ececec; stroke: #8f8f8f; stroke-width: 0.5; stroke-linejoin: miter"/>
    </g>
    <text style="font-size: 6.4px; font-family: 'Arial', 'DejaVu Sans', 'Liberation Sans', sans-serif; text-anchor: middle; fill: #272727" x="424.467805" y="126.993506" transform="rotate(-0 424.467805 126.993506)">not merged</text>
   </g>
   <g id="text_30">
    <text style="font-size: 6.6px; font-family: 'Arial', 'DejaVu Sans', 'Liberation Sans', sans-serif; text-anchor: middle; fill: #8f8f8f" x="489.845632" y="127.045209" transform="rotate(-0 489.845632 127.045209)">C1</text>
   </g>
   <g id="text_31">
    <text style="font-size: 7px; font-family: 'Arial', 'DejaVu Sans', 'Liberation Sans', sans-serif; text-anchor: start; fill: #272727" x="250.126931" y="150.42798" transform="rotate(-0 250.126931 150.42798)">pandas #65951</text>
   </g>
   <g id="text_32">
    <g id="patch_13">
     <path d="M 351.891129 153.409348 
L 377.185129 153.409348 
Q 378.785129 153.409348 378.785129 151.809348 
L 378.785129 145.409348 
Q 378.785129 143.809348 377.185129 143.809348 
L 351.891129 143.809348 
Q 350.291129 143.809348 350.291129 145.409348 
L 350.291129 151.809348 
Q 350.291129 153.409348 351.891129 153.409348 
z
" style="fill: #c0433f"/>
    </g>
    <text style="font-weight: 700; font-size: 6.4px; font-family: 'Arial', 'DejaVu Sans', 'Liberation Sans', sans-serif; text-anchor: middle; fill: #ffffff" x="364.538129" y="150.271848" transform="rotate(-0 364.538129 150.271848)">MERGE</text>
   </g>
   <g id="text_33">
    <g id="patch_14">
     <path d="M 405.832805 153.409598 
L 443.102805 153.409598 
Q 444.702805 153.409598 444.702805 151.809598 
L 444.702805 145.409098 
Q 444.702805 143.809098 443.102805 143.809098 
L 405.832805 143.809098 
Q 404.232805 143.809098 404.232805 145.409098 
L 404.232805 151.809598 
Q 404.232805 153.409598 405.832805 153.409598 
z
" style="fill: #ececec; stroke: #8f8f8f; stroke-width: 0.5; stroke-linejoin: miter"/>
    </g>
    <text style="font-size: 6.4px; font-family: 'Arial', 'DejaVu Sans', 'Liberation Sans', sans-serif; text-anchor: middle; fill: #272727" x="424.467805" y="150.272098" transform="rotate(-0 424.467805 150.272098)">not merged</text>
   </g>
   <g id="text_34">
    <text style="font-size: 6.6px; font-family: 'Arial', 'DejaVu Sans', 'Liberation Sans', sans-serif; text-anchor: middle; fill: #8f8f8f" x="489.845632" y="150.323801" transform="rotate(-0 489.845632 150.323801)">C1</text>
   </g>
   <g id="text_35">
    <text style="font-size: 7px; font-family: 'Arial', 'DejaVu Sans', 'Liberation Sans', sans-serif; text-anchor: start; fill: #272727" x="250.126931" y="173.706572" transform="rotate(-0 250.126931 173.706572)">pandas #65976</text>
   </g>
   <g id="text_36">
    <g id="patch_15">
     <path d="M 351.891129 176.687939 
L 377.185129 176.687939 
Q 378.785129 176.687939 378.785129 175.087939 
L 378.785129 168.687939 
Q 378.785129 167.087939 377.185129 167.087939 
L 351.891129 167.087939 
Q 350.291129 167.087939 350.291129 168.687939 
L 350.291129 175.087939 
Q 350.291129 176.687939 351.891129 176.687939 
z
" style="fill: #c0433f"/>
    </g>
    <text style="font-weight: 700; font-size: 6.4px; font-family: 'Arial', 'DejaVu Sans', 'Liberation Sans', sans-serif; text-anchor: middle; fill: #ffffff" x="364.538129" y="173.550439" transform="rotate(-0 364.538129 173.550439)">MERGE</text>
   </g>
   <g id="text_37">
    <g id="patch_16">
     <path d="M 405.832805 176.688189 
L 443.102805 176.688189 
Q 444.702805 176.688189 444.702805 175.088189 
L 444.702805 168.687689 
Q 444.702805 167.087689 443.102805 167.087689 
L 405.832805 167.087689 
Q 404.232805 167.087689 404.232805 168.687689 
L 404.232805 175.088189 
Q 404.232805 176.688189 405.832805 176.688189 
z
" style="fill: #ececec; stroke: #8f8f8f; stroke-width: 0.5; stroke-linejoin: miter"/>
    </g>
    <text style="font-size: 6.4px; font-family: 'Arial', 'DejaVu Sans', 'Liberation Sans', sans-serif; text-anchor: middle; fill: #272727" x="424.467805" y="173.550689" transform="rotate(-0 424.467805 173.550689)">not merged</text>
   </g>
   <g id="text_38">
    <text style="font-size: 6.6px; font-family: 'Arial', 'DejaVu Sans', 'Liberation Sans', sans-serif; text-anchor: middle; fill: #8f8f8f" x="489.845632" y="173.602392" transform="rotate(-0 489.845632 173.602392)">C1</text>
   </g>
   <g id="text_39">
    <text style="font-weight: 700; font-size: 11px; font-family: 'Arial', 'DejaVu Sans', 'Liberation Sans', sans-serif; text-anchor: start; fill: #272727" x="239.230626" y="57.415008" transform="rotate(-0 239.230626 57.415008)">b</text>
   </g>
  </g>
  <g id="text_40">
   <text style="font-weight: 700; font-size: 9px; font-family: 'Arial', 'DejaVu Sans', 'Liberation Sans', sans-serif; text-anchor: middle; fill: #272727" x="266.526394" y="14.038594" transform="rotate(-0 266.526394 14.038594)">Five selected diff-only errors are false positives on surface-complete AI PRs</text>
  </g>
 </g>
 <defs>
  <clipPath id="pf8047696cc">
   <rect x="53.509295" y="62.47856" width="178.112672" height="121.048674"/>
  </clipPath>
  <clipPath id="p8ac571cd0d">
   <rect x="244.678778" y="62.47856" width="272.407616" height="121.048674"/>
  </clipPath>
 </defs>
</svg>
