<?xml version="1.0" encoding="utf-8" standalone="no"?>
<!DOCTYPE svg PUBLIC "-//W3C//DTD SVG 1.1//EN"
  "http://www.w3.org/Graphics/SVG/1.1/DTD/svg11.dtd">
<svg xmlns:xlink="http://www.w3.org/1999/xlink" width="300.501094pt" height="260.059062pt" viewBox="0 0 300.501094 260.059062" xmlns="http://www.w3.org/2000/svg" version="1.1">
 <metadata>
  <rdf:RDF xmlns:dc="http://purl.org/dc/elements/1.1/" xmlns:cc="http://creativecommons.org/ns#" xmlns:rdf="http://www.w3.org/1999/02/22-rdf-syntax-ns#">
   <cc:Work>
    <dc:type rdf:resource="http://purl.org/dc/dcmitype/StillImage"/>
    <dc:date>2026-07-07T13:52:17.959581</dc:date>
    <dc:format>image/svg+xml</dc:format>
    <dc:creator>
     <cc:Agent>
      <dc:title>Matplotlib v3.11.0, https://matplotlib.org/</dc:title>
     </cc:Agent>
    </dc:creator>
   </cc:Work>
  </rdf:RDF>
 </metadata>
 <defs>
  <style type="text/css">*{stroke-linejoin: round; stroke-linecap: butt}</style>
 </defs>
 <g id="figure_1">
  <g id="patch_1">
   <path d="M -0 260.059062 
L 300.501094 260.059062 
L 300.501094 0 
L -0 0 
z
" style="fill: #ffffff"/>
  </g>
  <g id="axes_1">
   <g id="patch_2">
    <path d="M 50.194375 216.358125 
L 284.554375 216.358125 
L 284.554375 22.318125 
L 50.194375 22.318125 
z
" style="fill: #ffffff"/>
   </g>
   <g id="matplotlib.axis_1">
    <g id="xtick_1">
     <g id="line2d_1">
      <path d="M 50.194375 216.358125 
L 50.194375 22.318125 
" clip-path="url(#pd97b7e1e70)" style="fill: none; stroke: #e5e7eb; stroke-width: 0.7; stroke-linecap: round"/>
     </g>
     <g id="text_1">
      <text style="font-size: 11px; font-family: 'Arial', 'DejaVu Sans', 'Liberation Sans', 'Bitstream Vera Sans', sans-serif; text-anchor: middle; fill: #262626" x="50.194375" y="234.215547" transform="rotate(-0 50.194375 234.215547)">0.0</text>
     </g>
    </g>
    <g id="xtick_2">
     <g id="line2d_2">
      <path d="M 97.066375 216.358125 
L 97.066375 22.318125 
" clip-path="url(#pd97b7e1e70)" style="fill: none; stroke: #e5e7eb; stroke-width: 0.7; stroke-linecap: round"/>
     </g>
     <g id="text_2">
      <text style="font-size: 11px; font-family: 'Arial', 'DejaVu Sans', 'Liberation Sans', 'Bitstream Vera Sans', sans-serif; text-anchor: middle; fill: #262626" x="97.066375" y="234.215547" transform="rotate(-0 97.066375 234.215547)">0.2</text>
     </g>
    </g>
    <g id="xtick_3">
     <g id="line2d_3">
      <path d="M 143.938375 216.358125 
L 143.938375 22.318125 
" clip-path="url(#pd97b7e1e70)" style="fill: none; stroke: #e5e7eb; stroke-width: 0.7; stroke-linecap: round"/>
     </g>
     <g id="text_3">
      <text style="font-size: 11px; font-family: 'Arial', 'DejaVu Sans', 'Liberation Sans', 'Bitstream Vera Sans', sans-serif; text-anchor: middle; fill: #262626" x="143.938375" y="234.215547" transform="rotate(-0 143.938375 234.215547)">0.4</text>
     </g>
    </g>
    <g id="xtick_4">
     <g id="line2d_4">
      <path d="M 190.810375 216.358125 
L 190.810375 22.318125 
" clip-path="url(#pd97b7e1e70)" style="fill: none; stroke: #e5e7eb; stroke-width: 0.7; stroke-linecap: round"/>
     </g>
     <g id="text_4">
      <text style="font-size: 11px; font-family: 'Arial', 'DejaVu Sans', 'Liberation Sans', 'Bitstream Vera Sans', sans-serif; text-anchor: middle; fill: #262626" x="190.810375" y="234.215547" transform="rotate(-0 190.810375 234.215547)">0.6</text>
     </g>
    </g>
    <g id="xtick_5">
     <g id="line2d_5">
      <path d="M 237.682375 216.358125 
L 237.682375 22.318125 
" clip-path="url(#pd97b7e1e70)" style="fill: none; stroke: #e5e7eb; stroke-width: 0.7; stroke-linecap: round"/>
     </g>
     <g id="text_5">
      <text style="font-size: 11px; font-family: 'Arial', 'DejaVu Sans', 'Liberation Sans', 'Bitstream Vera Sans', sans-serif; text-anchor: middle; fill: #262626" x="237.682375" y="234.215547" transform="rotate(-0 237.682375 234.215547)">0.8</text>
     </g>
    </g>
    <g id="xtick_6">
     <g id="line2d_6">
      <path d="M 284.554375 216.358125 
L 284.554375 22.318125 
" clip-path="url(#pd97b7e1e70)" style="fill: none; stroke: #e5e7eb; stroke-width: 0.7; stroke-linecap: round"/>
     </g>
     <g id="text_6">
      <text style="font-size: 11px; font-family: 'Arial', 'DejaVu Sans', 'Liberation Sans', 'Bitstream Vera Sans', sans-serif; text-anchor: middle; fill: #262626" x="284.554375" y="234.215547" transform="rotate(-0 284.554375 234.215547)">1.0</text>
     </g>
    </g>
    <g id="text_7">
     <text style="font-size: 12px; font-family: 'Arial', 'DejaVu Sans', 'Liberation Sans', 'Bitstream Vera Sans', sans-serif; text-anchor: middle; fill: #262626" x="167.374375" y="249.97625" transform="rotate(-0 167.374375 249.97625)">False positive rate</text>
    </g>
   </g>
   <g id="matplotlib.axis_2">
    <g id="ytick_1">
     <g id="line2d_7">
      <path d="M 50.194375 216.358125 
L 284.554375 216.358125 
" clip-path="url(#pd97b7e1e70)" style="fill: none; stroke: #e5e7eb; stroke-width: 0.7; stroke-linecap: round"/>
     </g>
     <g id="text_8">
      <text style="font-size: 11px; font-family: 'Arial', 'DejaVu Sans', 'Liberation Sans', 'Bitstream Vera Sans', sans-serif; text-anchor: end; fill: #262626" x="40.694375" y="220.536836" transform="rotate(-0 40.694375 220.536836)">0.0</text>
     </g>
    </g>
    <g id="ytick_2">
     <g id="line2d_8">
      <path d="M 50.194375 178.311066 
L 284.554375 178.311066 
" clip-path="url(#pd97b7e1e70)" style="fill: none; stroke: #e5e7eb; stroke-width: 0.7; stroke-linecap: round"/>
     </g>
     <g id="text_9">
      <text style="font-size: 11px; font-family: 'Arial', 'DejaVu Sans', 'Liberation Sans', 'Bitstream Vera Sans', sans-serif; text-anchor: end; fill: #262626" x="40.694375" y="182.489777" transform="rotate(-0 40.694375 182.489777)">0.2</text>
     </g>
    </g>
    <g id="ytick_3">
     <g id="line2d_9">
      <path d="M 50.194375 140.264007 
L 284.554375 140.264007 
" clip-path="url(#pd97b7e1e70)" style="fill: none; stroke: #e5e7eb; stroke-width: 0.7; stroke-linecap: round"/>
     </g>
     <g id="text_10">
      <text style="font-size: 11px; font-family: 'Arial', 'DejaVu Sans', 'Liberation Sans', 'Bitstream Vera Sans', sans-serif; text-anchor: end; fill: #262626" x="40.694375" y="144.442718" transform="rotate(-0 40.694375 144.442718)">0.4</text>
     </g>
    </g>
    <g id="ytick_4">
     <g id="line2d_10">
      <path d="M 50.194375 102.216949 
L 284.554375 102.216949 
" clip-path="url(#pd97b7e1e70)" style="fill: none; stroke: #e5e7eb; stroke-width: 0.7; stroke-linecap: round"/>
     </g>
     <g id="text_11">
      <text style="font-size: 11px; font-family: 'Arial', 'DejaVu Sans', 'Liberation Sans', 'Bitstream Vera Sans', sans-serif; text-anchor: end; fill: #262626" x="40.694375" y="106.395659" transform="rotate(-0 40.694375 106.395659)">0.6</text>
     </g>
    </g>
    <g id="ytick_5">
     <g id="line2d_11">
      <path d="M 50.194375 64.16989 
L 284.554375 64.16989 
" clip-path="url(#pd97b7e1e70)" style="fill: none; stroke: #e5e7eb; stroke-width: 0.7; stroke-linecap: round"/>
     </g>
     <g id="text_12">
      <text style="font-size: 11px; font-family: 'Arial', 'DejaVu Sans', 'Liberation Sans', 'Bitstream Vera Sans', sans-serif; text-anchor: end; fill: #262626" x="40.694375" y="68.348601" transform="rotate(-0 40.694375 68.348601)">0.8</text>
     </g>
    </g>
    <g id="ytick_6">
     <g id="line2d_12">
      <path d="M 50.194375 26.122831 
L 284.554375 26.122831 
" clip-path="url(#pd97b7e1e70)" style="fill: none; stroke: #e5e7eb; stroke-width: 0.7; stroke-linecap: round"/>
     </g>
     <g id="text_13">
      <text style="font-size: 11px; font-family: 'Arial', 'DejaVu Sans', 'Liberation Sans', 'Bitstream Vera Sans', sans-serif; text-anchor: end; fill: #262626" x="40.694375" y="30.301542" transform="rotate(-0 40.694375 30.301542)">1.0</text>
     </g>
    </g>
    <g id="text_14">
     <text style="font-size: 12px; font-family: 'Arial', 'DejaVu Sans', 'Liberation Sans', 'Bitstream Vera Sans', sans-serif; text-anchor: middle; fill: #262626" x="16.318125" y="119.338125" transform="rotate(-90 16.318125 119.338125)">True positive rate</text>
    </g>
   </g>
   <g id="line2d_13">
    <path d="M 50.194375 216.358125 
L 50.194375 214.938459 
L 50.194375 183.705798 
L 53.361402 183.705798 
L 53.361402 170.928801 
L 56.528429 170.928801 
L 56.528429 156.732137 
L 62.862483 156.732137 
L 62.862483 142.535474 
L 66.02951 142.535474 
L 66.02951 138.276474 
L 69.196537 138.276474 
L 69.196537 131.178143 
L 75.530591 131.178143 
L 75.530591 128.33881 
L 81.864645 128.33881 
L 81.864645 122.660144 
L 88.198699 122.660144 
L 88.198699 119.820812 
L 91.365726 119.820812 
L 91.365726 109.883147 
L 94.532753 109.883147 
L 94.532753 108.463481 
L 104.033834 108.463481 
L 104.033834 97.10615 
L 107.200861 97.10615 
L 107.200861 95.686483 
L 110.367889 95.686483 
L 110.367889 91.427484 
L 116.701943 91.427484 
L 116.701943 82.909486 
L 123.035997 82.909486 
L 123.035997 80.070153 
L 129.370051 80.070153 
L 129.370051 78.650487 
L 132.537078 78.650487 
L 132.537078 74.391488 
L 142.038159 74.391488 
L 142.038159 71.552155 
L 145.205186 71.552155 
L 145.205186 68.712822 
L 148.372213 68.712822 
L 148.372213 67.293156 
L 151.53924 67.293156 
L 151.53924 65.873489 
L 157.873294 65.873489 
L 157.873294 53.096492 
L 161.040321 53.096492 
L 161.040321 51.676826 
L 167.374375 51.676826 
L 167.374375 50.257159 
L 170.541402 50.257159 
L 170.541402 48.837493 
L 176.875456 48.837493 
L 176.875456 47.417826 
L 195.877618 47.417826 
L 195.877618 45.99816 
L 199.044645 45.99816 
L 199.044645 44.578494 
L 202.211672 44.578494 
L 202.211672 43.158827 
L 208.545726 43.158827 
L 208.545726 41.739161 
L 227.547889 41.739161 
L 227.547889 38.899828 
L 233.881943 38.899828 
L 233.881943 37.480162 
L 237.04897 37.480162 
L 237.04897 36.060496 
L 240.215997 36.060496 
L 240.215997 31.801496 
L 246.550051 31.801496 
L 246.550051 30.38183 
L 265.552213 30.38183 
L 265.552213 26.122831 
L 284.554375 26.122831 
" clip-path="url(#pd97b7e1e70)" style="fill: none; stroke: #4b5563; stroke-width: 1.8; stroke-linecap: round"/>
   </g>
   <g id="line2d_14">
    <path d="M 50.194375 216.358125 
L 50.194375 214.938459 
L 50.194375 212.099126 
L 50.194375 168.089468 
L 53.361402 168.089468 
L 53.361402 162.410803 
L 59.695456 162.410803 
L 59.695456 146.794473 
L 62.862483 146.794473 
L 62.862483 136.856808 
L 69.196537 136.856808 
L 69.196537 124.079811 
L 72.363564 124.079811 
L 72.363564 116.981479 
L 75.530591 116.981479 
L 75.530591 112.72248 
L 78.697618 112.72248 
L 78.697618 111.302813 
L 81.864645 111.302813 
L 81.864645 108.463481 
L 85.031672 108.463481 
L 85.031672 94.266817 
L 88.198699 94.266817 
L 88.198699 87.168485 
L 91.365726 87.168485 
L 91.365726 75.811154 
L 94.532753 75.811154 
L 94.532753 72.971821 
L 97.69978 72.971821 
L 97.69978 71.552155 
L 100.866807 71.552155 
L 100.866807 68.712822 
L 110.367889 68.712822 
L 110.367889 67.293156 
L 113.534916 67.293156 
L 113.534916 63.034157 
L 123.035997 63.034157 
L 123.035997 60.194824 
L 126.203024 60.194824 
L 126.203024 58.775157 
L 135.704105 58.775157 
L 135.704105 54.516158 
L 138.871132 54.516158 
L 138.871132 53.096492 
L 154.706267 53.096492 
L 154.706267 51.676826 
L 157.873294 51.676826 
L 157.873294 50.257159 
L 161.040321 50.257159 
L 161.040321 48.837493 
L 164.207348 48.837493 
L 164.207348 44.578494 
L 167.374375 44.578494 
L 167.374375 41.739161 
L 180.042483 41.739161 
L 180.042483 38.899828 
L 192.710591 38.899828 
L 192.710591 37.480162 
L 195.877618 37.480162 
L 195.877618 36.060496 
L 202.211672 36.060496 
L 202.211672 34.640829 
L 211.712753 34.640829 
L 211.712753 31.801496 
L 218.046807 31.801496 
L 218.046807 30.38183 
L 227.547889 30.38183 
L 227.547889 28.962164 
L 230.714916 28.962164 
L 230.714916 27.542497 
L 246.550051 27.542497 
L 246.550051 26.122831 
L 284.554375 26.122831 
" clip-path="url(#pd97b7e1e70)" style="fill: none; stroke: #0f4d92; stroke-width: 1.8; stroke-linecap: round"/>
   </g>
   <g id="line2d_15">
    <path d="M 50.194375 216.358125 
L 50.194375 214.938459 
L 50.194375 169.509135 
L 53.361402 169.509135 
L 53.361402 162.410803 
L 62.862483 162.410803 
L 62.862483 142.535474 
L 69.196537 142.535474 
L 69.196537 138.276474 
L 72.363564 138.276474 
L 72.363564 119.820812 
L 75.530591 119.820812 
L 75.530591 109.883147 
L 78.697618 109.883147 
L 78.697618 99.945482 
L 81.864645 99.945482 
L 81.864645 98.525816 
L 85.031672 98.525816 
L 85.031672 97.10615 
L 88.198699 97.10615 
L 88.198699 95.686483 
L 94.532753 95.686483 
L 94.532753 94.266817 
L 97.69978 94.266817 
L 97.69978 92.84715 
L 104.033834 92.84715 
L 104.033834 90.007818 
L 107.200861 90.007818 
L 107.200861 78.650487 
L 116.701943 78.650487 
L 116.701943 64.453823 
L 119.86897 64.453823 
L 119.86897 63.034157 
L 132.537078 63.034157 
L 132.537078 57.355491 
L 135.704105 57.355491 
L 135.704105 54.516158 
L 148.372213 54.516158 
L 148.372213 51.676826 
L 154.706267 51.676826 
L 154.706267 45.99816 
L 157.873294 45.99816 
L 157.873294 44.578494 
L 170.541402 44.578494 
L 170.541402 40.319495 
L 173.708429 40.319495 
L 173.708429 38.899828 
L 195.877618 38.899828 
L 195.877618 37.480162 
L 208.545726 37.480162 
L 208.545726 34.640829 
L 214.87978 34.640829 
L 214.87978 33.221163 
L 218.046807 33.221163 
L 218.046807 31.801496 
L 221.213834 31.801496 
L 221.213834 30.38183 
L 237.04897 30.38183 
L 237.04897 27.542497 
L 243.383024 27.542497 
L 243.383024 26.122831 
L 284.554375 26.122831 
" clip-path="url(#pd97b7e1e70)" style="fill: none; stroke: #42949e; stroke-width: 1.8; stroke-linecap: round"/>
   </g>
   <g id="line2d_16">
    <path d="M 50.194375 216.358125 
L 50.194375 214.938459 
L 50.194375 212.099126 
L 50.194375 160.991136 
L 56.528429 160.991136 
L 56.528429 158.151804 
L 59.695456 158.151804 
L 59.695456 152.473138 
L 62.862483 152.473138 
L 62.862483 143.95514 
L 69.196537 143.95514 
L 69.196537 141.115807 
L 72.363564 141.115807 
L 72.363564 124.079811 
L 75.530591 124.079811 
L 75.530591 115.561812 
L 78.697618 115.561812 
L 78.697618 108.463481 
L 85.031672 108.463481 
L 85.031672 107.043814 
L 88.198699 107.043814 
L 88.198699 104.204481 
L 91.365726 104.204481 
L 91.365726 98.525816 
L 94.532753 98.525816 
L 94.532753 92.84715 
L 100.866807 92.84715 
L 100.866807 85.748819 
L 104.033834 85.748819 
L 104.033834 82.909486 
L 110.367889 82.909486 
L 110.367889 81.489819 
L 113.534916 81.489819 
L 113.534916 78.650487 
L 116.701943 78.650487 
L 116.701943 75.811154 
L 129.370051 75.811154 
L 129.370051 72.971821 
L 132.537078 72.971821 
L 132.537078 67.293156 
L 135.704105 67.293156 
L 135.704105 61.61449 
L 138.871132 61.61449 
L 138.871132 57.355491 
L 142.038159 57.355491 
L 142.038159 54.516158 
L 154.706267 54.516158 
L 154.706267 47.417826 
L 170.541402 47.417826 
L 170.541402 44.578494 
L 173.708429 44.578494 
L 173.708429 43.158827 
L 176.875456 43.158827 
L 176.875456 41.739161 
L 183.20951 41.739161 
L 183.20951 40.319495 
L 186.376537 40.319495 
L 186.376537 38.899828 
L 189.543564 38.899828 
L 189.543564 37.480162 
L 192.710591 37.480162 
L 192.710591 36.060496 
L 221.213834 36.060496 
L 221.213834 34.640829 
L 224.380861 34.640829 
L 224.380861 33.221163 
L 227.547889 33.221163 
L 227.547889 31.801496 
L 237.04897 31.801496 
L 237.04897 30.38183 
L 243.383024 30.38183 
L 243.383024 27.542497 
L 256.051132 27.542497 
L 256.051132 26.122831 
L 284.554375 26.122831 
" clip-path="url(#pd97b7e1e70)" style="fill: none; stroke: #9a4d8e; stroke-width: 1.8; stroke-linecap: round"/>
   </g>
   <g id="line2d_17">
    <path d="M 50.194375 216.358125 
L 284.554375 26.122831 
" clip-path="url(#pd97b7e1e70)" style="fill: none; stroke-dasharray: 3.33,1.44; stroke-dashoffset: 0; stroke: #8f8f8f; stroke-width: 0.9"/>
   </g>
   <g id="patch_3">
    <path d="M 50.194375 216.358125 
L 50.194375 22.318125 
" style="fill: none; stroke: #262626; stroke-width: 1.25; stroke-linejoin: miter; stroke-linecap: square"/>
   </g>
   <g id="patch_4">
    <path d="M 284.554375 216.358125 
L 284.554375 22.318125 
" style="fill: none; stroke: #262626; stroke-width: 1.25; stroke-linejoin: miter; stroke-linecap: square"/>
   </g>
   <g id="patch_5">
    <path d="M 50.194375 216.358125 
L 284.554375 216.358125 
" style="fill: none; stroke: #262626; stroke-width: 1.25; stroke-linejoin: miter; stroke-linecap: square"/>
   </g>
   <g id="patch_6">
    <path d="M 50.194375 22.318125 
L 284.554375 22.318125 
" style="fill: none; stroke: #262626; stroke-width: 1.25; stroke-linejoin: miter; stroke-linecap: square"/>
   </g>
   <g id="text_15">
    <text style="font-size: 6px; font-family: 'Arial', 'DejaVu Sans', 'Liberation Sans', 'Bitstream Vera Sans', sans-serif; text-anchor: start; fill: #4b5563" x="161.040321" y="53.096492" transform="rotate(-0 161.040321 53.096492)">SVM</text>
   </g>
   <g id="text_16">
    <text style="font-size: 6px; font-family: 'Arial', 'DejaVu Sans', 'Liberation Sans', 'Bitstream Vera Sans', sans-serif; text-anchor: start; fill: #0f4d92" x="154.706267" y="51.676826" transform="rotate(-0 154.706267 51.676826)">RF</text>
   </g>
   <g id="text_17">
    <text style="font-size: 6px; font-family: 'Arial', 'DejaVu Sans', 'Liberation Sans', 'Bitstream Vera Sans', sans-serif; text-anchor: start; fill: #42949e" x="148.372213" y="51.676826" transform="rotate(-0 148.372213 51.676826)">XGBoost</text>
   </g>
   <g id="text_18">
    <text style="font-size: 6px; font-family: 'Arial', 'DejaVu Sans', 'Liberation Sans', 'Bitstream Vera Sans', sans-serif; text-anchor: start; fill: #9a4d8e" x="154.706267" y="54.516158" transform="rotate(-0 154.706267 54.516158)">LightGBM</text>
   </g>
   <g id="text_19">
    <text style="font-size: 12px; font-family: 'Arial', 'DejaVu Sans', 'Liberation Sans', 'Bitstream Vera Sans', sans-serif; text-anchor: start; fill: #262626" x="50.194375" y="16.318125" transform="rotate(-0 50.194375 16.318125)">Discrimination on the pre test set</text>
   </g>
   <g id="legend_1">
    <g id="text_20">
     <text style="font-size: 6.5px; font-family: 'Arial', 'DejaVu Sans', 'Liberation Sans', 'Bitstream Vera Sans', sans-serif; text-anchor: start; fill: #262626" x="195.904492" y="122.392305" transform="rotate(-0 195.904492 122.392305)">ROC-AUC</text>
    </g>
    <g id="line2d_18">
     <path d="M 147.270938 133.962109 
L 158.270938 133.962109 
L 169.270938 133.962109 
" style="fill: none; stroke: #4b5563; stroke-width: 1.8; stroke-linecap: round"/>
    </g>
    <g id="text_21">
     <text style="font-size: 11px; font-family: 'Arial', 'DejaVu Sans', 'Liberation Sans', 'Bitstream Vera Sans', sans-serif; text-anchor: start; fill: #262626" x="178.070938" y="137.812109" transform="rotate(-0 178.070938 137.812109)">SVM (0.769)</text>
    </g>
    <g id="line2d_19">
     <path d="M 147.270938 150.462969 
L 158.270938 150.462969 
L 169.270938 150.462969 
" style="fill: none; stroke: #0f4d92; stroke-width: 1.8; stroke-linecap: round"/>
    </g>
    <g id="text_22">
     <text style="font-size: 11px; font-family: 'Arial', 'DejaVu Sans', 'Liberation Sans', 'Bitstream Vera Sans', sans-serif; text-anchor: start; fill: #262626" x="178.070938" y="154.312969" transform="rotate(-0 178.070938 154.312969)">RF (0.834)</text>
    </g>
    <g id="line2d_20">
     <path d="M 147.270938 166.963828 
L 158.270938 166.963828 
L 169.270938 166.963828 
" style="fill: none; stroke: #42949e; stroke-width: 1.8; stroke-linecap: round"/>
    </g>
    <g id="text_23">
     <text style="font-size: 11px; font-family: 'Arial', 'DejaVu Sans', 'Liberation Sans', 'Bitstream Vera Sans', sans-serif; text-anchor: start; fill: #262626" x="178.070938" y="170.813828" transform="rotate(-0 178.070938 170.813828)">XGBoost (0.820)</text>
    </g>
    <g id="line2d_21">
     <path d="M 147.270938 183.464687 
L 158.270938 183.464687 
L 169.270938 183.464687 
" style="fill: none; stroke: #9a4d8e; stroke-width: 1.8; stroke-linecap: round"/>
    </g>
    <g id="text_24">
     <text style="font-size: 11px; font-family: 'Arial', 'DejaVu Sans', 'Liberation Sans', 'Bitstream Vera Sans', sans-serif; text-anchor: start; fill: #262626" x="178.070938" y="187.314687" transform="rotate(-0 178.070938 187.314687)">LightGBM (0.809)</text>
    </g>
    <g id="line2d_22">
     <path d="M 147.270938 199.965547 
L 158.270938 199.965547 
L 169.270938 199.965547 
" style="fill: none; stroke-dasharray: 3.33,1.44; stroke-dashoffset: 0; stroke: #8f8f8f; stroke-width: 0.9"/>
    </g>
    <g id="text_25">
     <text style="font-size: 11px; font-family: 'Arial', 'DejaVu Sans', 'Liberation Sans', 'Bitstream Vera Sans', sans-serif; text-anchor: start; fill: #262626" x="178.070938" y="203.815547" transform="rotate(-0 178.070938 203.815547)">Random</text>
    </g>
   </g>
  </g>
 </g>
 <defs>
  <clipPath id="pd97b7e1e70">
   <rect x="50.194375" y="22.318125" width="234.36" height="194.04"/>
  </clipPath>
 </defs>
</svg>
