<?xml version="1.0" encoding="utf-8" standalone="no"?>
<!DOCTYPE svg PUBLIC "-//W3C//DTD SVG 1.1//EN"
  "http://www.w3.org/Graphics/SVG/1.1/DTD/svg11.dtd">
<svg xmlns:xlink="http://www.w3.org/1999/xlink" width="300.501094pt" height="260.059062pt" viewBox="0 0 300.501094 260.059062" xmlns="http://www.w3.org/2000/svg" version="1.1">
 <metadata>
  <rdf:RDF xmlns:dc="http://purl.org/dc/elements/1.1/" xmlns:cc="http://creativecommons.org/ns#" xmlns:rdf="http://www.w3.org/1999/02/22-rdf-syntax-ns#">
   <cc:Work>
    <dc:type rdf:resource="http://purl.org/dc/dcmitype/StillImage"/>
    <dc:date>2026-07-07T13:51:57.042541</dc:date>
    <dc:format>image/svg+xml</dc:format>
    <dc:creator>
     <cc:Agent>
      <dc:title>Matplotlib v3.11.0, https://matplotlib.org/</dc:title>
     </cc:Agent>
    </dc:creator>
   </cc:Work>
  </rdf:RDF>
 </metadata>
 <defs>
  <style type="text/css">*{stroke-linejoin: round; stroke-linecap: butt}</style>
 </defs>
 <g id="figure_1">
  <g id="patch_1">
   <path d="M -0 260.059062 
L 300.501094 260.059062 
L 300.501094 0 
L -0 0 
z
" style="fill: #ffffff"/>
  </g>
  <g id="axes_1">
   <g id="patch_2">
    <path d="M 50.194375 216.358125 
L 284.554375 216.358125 
L 284.554375 22.318125 
L 50.194375 22.318125 
z
" style="fill: #ffffff"/>
   </g>
   <g id="matplotlib.axis_1">
    <g id="xtick_1">
     <g id="line2d_1">
      <path d="M 50.194375 216.358125 
L 50.194375 22.318125 
" clip-path="url(#p589cd9a249)" style="fill: none; stroke: #e5e7eb; stroke-width: 0.7; stroke-linecap: round"/>
     </g>
     <g id="text_1">
      <text style="font-size: 11px; font-family: 'Arial', 'DejaVu Sans', 'Liberation Sans', 'Bitstream Vera Sans', sans-serif; text-anchor: middle; fill: #262626" x="50.194375" y="234.215547" transform="rotate(-0 50.194375 234.215547)">0.0</text>
     </g>
    </g>
    <g id="xtick_2">
     <g id="line2d_2">
      <path d="M 97.066375 216.358125 
L 97.066375 22.318125 
" clip-path="url(#p589cd9a249)" style="fill: none; stroke: #e5e7eb; stroke-width: 0.7; stroke-linecap: round"/>
     </g>
     <g id="text_2">
      <text style="font-size: 11px; font-family: 'Arial', 'DejaVu Sans', 'Liberation Sans', 'Bitstream Vera Sans', sans-serif; text-anchor: middle; fill: #262626" x="97.066375" y="234.215547" transform="rotate(-0 97.066375 234.215547)">0.2</text>
     </g>
    </g>
    <g id="xtick_3">
     <g id="line2d_3">
      <path d="M 143.938375 216.358125 
L 143.938375 22.318125 
" clip-path="url(#p589cd9a249)" style="fill: none; stroke: #e5e7eb; stroke-width: 0.7; stroke-linecap: round"/>
     </g>
     <g id="text_3">
      <text style="font-size: 11px; font-family: 'Arial', 'DejaVu Sans', 'Liberation Sans', 'Bitstream Vera Sans', sans-serif; text-anchor: middle; fill: #262626" x="143.938375" y="234.215547" transform="rotate(-0 143.938375 234.215547)">0.4</text>
     </g>
    </g>
    <g id="xtick_4">
     <g id="line2d_4">
      <path d="M 190.810375 216.358125 
L 190.810375 22.318125 
" clip-path="url(#p589cd9a249)" style="fill: none; stroke: #e5e7eb; stroke-width: 0.7; stroke-linecap: round"/>
     </g>
     <g id="text_4">
      <text style="font-size: 11px; font-family: 'Arial', 'DejaVu Sans', 'Liberation Sans', 'Bitstream Vera Sans', sans-serif; text-anchor: middle; fill: #262626" x="190.810375" y="234.215547" transform="rotate(-0 190.810375 234.215547)">0.6</text>
     </g>
    </g>
    <g id="xtick_5">
     <g id="line2d_5">
      <path d="M 237.682375 216.358125 
L 237.682375 22.318125 
" clip-path="url(#p589cd9a249)" style="fill: none; stroke: #e5e7eb; stroke-width: 0.7; stroke-linecap: round"/>
     </g>
     <g id="text_5">
      <text style="font-size: 11px; font-family: 'Arial', 'DejaVu Sans', 'Liberation Sans', 'Bitstream Vera Sans', sans-serif; text-anchor: middle; fill: #262626" x="237.682375" y="234.215547" transform="rotate(-0 237.682375 234.215547)">0.8</text>
     </g>
    </g>
    <g id="xtick_6">
     <g id="line2d_6">
      <path d="M 284.554375 216.358125 
L 284.554375 22.318125 
" clip-path="url(#p589cd9a249)" style="fill: none; stroke: #e5e7eb; stroke-width: 0.7; stroke-linecap: round"/>
     </g>
     <g id="text_6">
      <text style="font-size: 11px; font-family: 'Arial', 'DejaVu Sans', 'Liberation Sans', 'Bitstream Vera Sans', sans-serif; text-anchor: middle; fill: #262626" x="284.554375" y="234.215547" transform="rotate(-0 284.554375 234.215547)">1.0</text>
     </g>
    </g>
    <g id="text_7">
     <text style="font-size: 12px; font-family: 'Arial', 'DejaVu Sans', 'Liberation Sans', 'Bitstream Vera Sans', sans-serif; text-anchor: middle; fill: #262626" x="167.374375" y="249.97625" transform="rotate(-0 167.374375 249.97625)">False positive rate</text>
    </g>
   </g>
   <g id="matplotlib.axis_2">
    <g id="ytick_1">
     <g id="line2d_7">
      <path d="M 50.194375 216.358125 
L 284.554375 216.358125 
" clip-path="url(#p589cd9a249)" style="fill: none; stroke: #e5e7eb; stroke-width: 0.7; stroke-linecap: round"/>
     </g>
     <g id="text_8">
      <text style="font-size: 11px; font-family: 'Arial', 'DejaVu Sans', 'Liberation Sans', 'Bitstream Vera Sans', sans-serif; text-anchor: end; fill: #262626" x="40.694375" y="220.536836" transform="rotate(-0 40.694375 220.536836)">0.0</text>
     </g>
    </g>
    <g id="ytick_2">
     <g id="line2d_8">
      <path d="M 50.194375 178.311066 
L 284.554375 178.311066 
" clip-path="url(#p589cd9a249)" style="fill: none; stroke: #e5e7eb; stroke-width: 0.7; stroke-linecap: round"/>
     </g>
     <g id="text_9">
      <text style="font-size: 11px; font-family: 'Arial', 'DejaVu Sans', 'Liberation Sans', 'Bitstream Vera Sans', sans-serif; text-anchor: end; fill: #262626" x="40.694375" y="182.489777" transform="rotate(-0 40.694375 182.489777)">0.2</text>
     </g>
    </g>
    <g id="ytick_3">
     <g id="line2d_9">
      <path d="M 50.194375 140.264007 
L 284.554375 140.264007 
" clip-path="url(#p589cd9a249)" style="fill: none; stroke: #e5e7eb; stroke-width: 0.7; stroke-linecap: round"/>
     </g>
     <g id="text_10">
      <text style="font-size: 11px; font-family: 'Arial', 'DejaVu Sans', 'Liberation Sans', 'Bitstream Vera Sans', sans-serif; text-anchor: end; fill: #262626" x="40.694375" y="144.442718" transform="rotate(-0 40.694375 144.442718)">0.4</text>
     </g>
    </g>
    <g id="ytick_4">
     <g id="line2d_10">
      <path d="M 50.194375 102.216949 
L 284.554375 102.216949 
" clip-path="url(#p589cd9a249)" style="fill: none; stroke: #e5e7eb; stroke-width: 0.7; stroke-linecap: round"/>
     </g>
     <g id="text_11">
      <text style="font-size: 11px; font-family: 'Arial', 'DejaVu Sans', 'Liberation Sans', 'Bitstream Vera Sans', sans-serif; text-anchor: end; fill: #262626" x="40.694375" y="106.395659" transform="rotate(-0 40.694375 106.395659)">0.6</text>
     </g>
    </g>
    <g id="ytick_5">
     <g id="line2d_11">
      <path d="M 50.194375 64.16989 
L 284.554375 64.16989 
" clip-path="url(#p589cd9a249)" style="fill: none; stroke: #e5e7eb; stroke-width: 0.7; stroke-linecap: round"/>
     </g>
     <g id="text_12">
      <text style="font-size: 11px; font-family: 'Arial', 'DejaVu Sans', 'Liberation Sans', 'Bitstream Vera Sans', sans-serif; text-anchor: end; fill: #262626" x="40.694375" y="68.348601" transform="rotate(-0 40.694375 68.348601)">0.8</text>
     </g>
    </g>
    <g id="ytick_6">
     <g id="line2d_12">
      <path d="M 50.194375 26.122831 
L 284.554375 26.122831 
" clip-path="url(#p589cd9a249)" style="fill: none; stroke: #e5e7eb; stroke-width: 0.7; stroke-linecap: round"/>
     </g>
     <g id="text_13">
      <text style="font-size: 11px; font-family: 'Arial', 'DejaVu Sans', 'Liberation Sans', 'Bitstream Vera Sans', sans-serif; text-anchor: end; fill: #262626" x="40.694375" y="30.301542" transform="rotate(-0 40.694375 30.301542)">1.0</text>
     </g>
    </g>
    <g id="text_14">
     <text style="font-size: 12px; font-family: 'Arial', 'DejaVu Sans', 'Liberation Sans', 'Bitstream Vera Sans', sans-serif; text-anchor: middle; fill: #262626" x="16.318125" y="119.338125" transform="rotate(-90 16.318125 119.338125)">True positive rate</text>
    </g>
   </g>
   <g id="line2d_13">
    <path d="M 50.194375 216.358125 
L 50.194375 214.938459 
L 50.194375 175.1878 
L 53.361402 175.1878 
L 53.361402 166.669802 
L 56.528429 166.669802 
L 56.528429 128.33881 
L 59.695456 128.33881 
L 59.695456 118.401145 
L 62.862483 118.401145 
L 62.862483 111.302813 
L 66.02951 111.302813 
L 66.02951 107.043814 
L 72.363564 107.043814 
L 72.363564 104.204481 
L 75.530591 104.204481 
L 75.530591 97.10615 
L 78.697618 97.10615 
L 78.697618 87.168485 
L 81.864645 87.168485 
L 81.864645 81.489819 
L 85.031672 81.489819 
L 85.031672 75.811154 
L 88.198699 75.811154 
L 88.198699 74.391488 
L 94.532753 74.391488 
L 94.532753 64.453823 
L 104.033834 64.453823 
L 104.033834 53.096492 
L 110.367889 53.096492 
L 110.367889 50.257159 
L 113.534916 50.257159 
L 113.534916 48.837493 
L 123.035997 48.837493 
L 123.035997 44.578494 
L 132.537078 44.578494 
L 132.537078 41.739161 
L 135.704105 41.739161 
L 135.704105 38.899828 
L 138.871132 38.899828 
L 138.871132 36.060496 
L 142.038159 36.060496 
L 142.038159 33.221163 
L 151.53924 33.221163 
L 151.53924 31.801496 
L 167.374375 31.801496 
L 167.374375 30.38183 
L 208.545726 30.38183 
L 208.545726 28.962164 
L 224.380861 28.962164 
L 224.380861 27.542497 
L 230.714916 27.542497 
L 230.714916 26.122831 
L 284.554375 26.122831 
" clip-path="url(#p589cd9a249)" style="fill: none; stroke: #4b5563; stroke-width: 1.8; stroke-linecap: round"/>
   </g>
   <g id="line2d_14">
    <path d="M 50.194375 216.358125 
L 50.194375 206.42046 
L 50.194375 189.384464 
L 53.361402 189.384464 
L 53.361402 149.633805 
L 56.528429 149.633805 
L 56.528429 105.624148 
L 59.695456 105.624148 
L 59.695456 104.204481 
L 62.862483 104.204481 
L 62.862483 101.365149 
L 66.02951 101.365149 
L 66.02951 90.007818 
L 72.363564 90.007818 
L 72.363564 87.168485 
L 75.530591 87.168485 
L 75.530591 68.712822 
L 81.864645 68.712822 
L 81.864645 67.293156 
L 85.031672 67.293156 
L 85.031672 63.034157 
L 88.198699 63.034157 
L 88.198699 61.61449 
L 94.532753 61.61449 
L 94.532753 60.194824 
L 97.69978 60.194824 
L 97.69978 54.516158 
L 100.866807 54.516158 
L 100.866807 51.676826 
L 104.033834 51.676826 
L 104.033834 50.257159 
L 107.200861 50.257159 
L 107.200861 43.158827 
L 113.534916 43.158827 
L 113.534916 41.739161 
L 119.86897 41.739161 
L 119.86897 37.480162 
L 123.035997 37.480162 
L 123.035997 36.060496 
L 132.537078 36.060496 
L 132.537078 34.640829 
L 135.704105 34.640829 
L 135.704105 31.801496 
L 138.871132 31.801496 
L 138.871132 28.962164 
L 170.541402 28.962164 
L 170.541402 27.542497 
L 221.213834 27.542497 
L 221.213834 26.122831 
L 284.554375 26.122831 
" clip-path="url(#p589cd9a249)" style="fill: none; stroke: #0f4d92; stroke-width: 1.8; stroke-linecap: round"/>
   </g>
   <g id="line2d_15">
    <path d="M 50.194375 216.358125 
L 50.194375 214.938459 
L 50.194375 170.928801 
L 53.361402 170.928801 
L 53.361402 149.633805 
L 56.528429 149.633805 
L 56.528429 131.178143 
L 59.695456 131.178143 
L 59.695456 121.240478 
L 62.862483 121.240478 
L 62.862483 118.401145 
L 66.02951 118.401145 
L 66.02951 111.302813 
L 69.196537 111.302813 
L 69.196537 99.945482 
L 75.530591 99.945482 
L 75.530591 97.10615 
L 78.697618 97.10615 
L 78.697618 90.007818 
L 81.864645 90.007818 
L 81.864645 77.23082 
L 85.031672 77.23082 
L 85.031672 67.293156 
L 91.365726 67.293156 
L 91.365726 64.453823 
L 94.532753 64.453823 
L 94.532753 58.775157 
L 97.69978 58.775157 
L 97.69978 53.096492 
L 100.866807 53.096492 
L 100.866807 45.99816 
L 107.200861 45.99816 
L 107.200861 44.578494 
L 110.367889 44.578494 
L 110.367889 43.158827 
L 116.701943 43.158827 
L 116.701943 40.319495 
L 119.86897 40.319495 
L 119.86897 38.899828 
L 145.205186 38.899828 
L 145.205186 37.480162 
L 148.372213 37.480162 
L 148.372213 36.060496 
L 154.706267 36.060496 
L 154.706267 34.640829 
L 164.207348 34.640829 
L 164.207348 33.221163 
L 180.042483 33.221163 
L 180.042483 31.801496 
L 183.20951 31.801496 
L 183.20951 30.38183 
L 227.547889 30.38183 
L 227.547889 28.962164 
L 233.881943 28.962164 
L 233.881943 27.542497 
L 268.71924 27.542497 
L 268.71924 26.122831 
L 284.554375 26.122831 
" clip-path="url(#p589cd9a249)" style="fill: none; stroke: #42949e; stroke-width: 1.8; stroke-linecap: round"/>
   </g>
   <g id="line2d_16">
    <path d="M 50.194375 216.358125 
L 50.194375 214.938459 
L 50.194375 209.259793 
L 50.194375 206.42046 
L 50.194375 165.250136 
L 56.528429 165.250136 
L 56.528429 148.214139 
L 59.695456 148.214139 
L 59.695456 142.535474 
L 62.862483 142.535474 
L 62.862483 126.919143 
L 66.02951 126.919143 
L 66.02951 121.240478 
L 69.196537 121.240478 
L 69.196537 114.142146 
L 72.363564 114.142146 
L 72.363564 80.070153 
L 75.530591 80.070153 
L 75.530591 78.650487 
L 78.697618 78.650487 
L 78.697618 75.811154 
L 81.864645 75.811154 
L 81.864645 72.971821 
L 88.198699 72.971821 
L 88.198699 67.293156 
L 91.365726 67.293156 
L 91.365726 64.453823 
L 94.532753 64.453823 
L 94.532753 63.034157 
L 100.866807 63.034157 
L 100.866807 61.61449 
L 104.033834 61.61449 
L 104.033834 60.194824 
L 107.200861 60.194824 
L 107.200861 53.096492 
L 110.367889 53.096492 
L 110.367889 47.417826 
L 116.701943 47.417826 
L 116.701943 45.99816 
L 119.86897 45.99816 
L 119.86897 41.739161 
L 123.035997 41.739161 
L 123.035997 40.319495 
L 135.704105 40.319495 
L 135.704105 38.899828 
L 138.871132 38.899828 
L 138.871132 37.480162 
L 145.205186 37.480162 
L 145.205186 34.640829 
L 154.706267 34.640829 
L 154.706267 33.221163 
L 176.875456 33.221163 
L 176.875456 31.801496 
L 199.044645 31.801496 
L 199.044645 28.962164 
L 237.04897 28.962164 
L 237.04897 27.542497 
L 259.218159 27.542497 
L 259.218159 26.122831 
L 284.554375 26.122831 
" clip-path="url(#p589cd9a249)" style="fill: none; stroke: #9a4d8e; stroke-width: 1.8; stroke-linecap: round"/>
   </g>
   <g id="line2d_17">
    <path d="M 50.194375 216.358125 
L 284.554375 26.122831 
" clip-path="url(#p589cd9a249)" style="fill: none; stroke-dasharray: 3.33,1.44; stroke-dashoffset: 0; stroke: #8f8f8f; stroke-width: 0.9"/>
   </g>
   <g id="patch_3">
    <path d="M 50.194375 216.358125 
L 50.194375 22.318125 
" style="fill: none; stroke: #262626; stroke-width: 1.25; stroke-linejoin: miter; stroke-linecap: square"/>
   </g>
   <g id="patch_4">
    <path d="M 284.554375 216.358125 
L 284.554375 22.318125 
" style="fill: none; stroke: #262626; stroke-width: 1.25; stroke-linejoin: miter; stroke-linecap: square"/>
   </g>
   <g id="patch_5">
    <path d="M 50.194375 216.358125 
L 284.554375 216.358125 
" style="fill: none; stroke: #262626; stroke-width: 1.25; stroke-linejoin: miter; stroke-linecap: square"/>
   </g>
   <g id="patch_6">
    <path d="M 50.194375 22.318125 
L 284.554375 22.318125 
" style="fill: none; stroke: #262626; stroke-width: 1.25; stroke-linejoin: miter; stroke-linecap: square"/>
   </g>
   <g id="text_15">
    <text style="font-size: 6px; font-family: 'Arial', 'DejaVu Sans', 'Liberation Sans', 'Bitstream Vera Sans', sans-serif; text-anchor: start; fill: #4b5563" x="123.035997" y="48.837493" transform="rotate(-0 123.035997 48.837493)">SVM</text>
   </g>
   <g id="text_16">
    <text style="font-size: 6px; font-family: 'Arial', 'DejaVu Sans', 'Liberation Sans', 'Bitstream Vera Sans', sans-serif; text-anchor: start; fill: #0f4d92" x="107.200861" y="50.257159" transform="rotate(-0 107.200861 50.257159)">RF</text>
   </g>
   <g id="text_17">
    <text style="font-size: 6px; font-family: 'Arial', 'DejaVu Sans', 'Liberation Sans', 'Bitstream Vera Sans', sans-serif; text-anchor: start; fill: #42949e" x="116.701943" y="43.158827" transform="rotate(-0 116.701943 43.158827)">XGBoost</text>
   </g>
   <g id="text_18">
    <text style="font-size: 6px; font-family: 'Arial', 'DejaVu Sans', 'Liberation Sans', 'Bitstream Vera Sans', sans-serif; text-anchor: start; fill: #9a4d8e" x="116.701943" y="47.417826" transform="rotate(-0 116.701943 47.417826)">LightGBM</text>
   </g>
   <g id="text_19">
    <text style="font-size: 12px; font-family: 'Arial', 'DejaVu Sans', 'Liberation Sans', 'Bitstream Vera Sans', sans-serif; text-anchor: start; fill: #262626" x="50.194375" y="16.318125" transform="rotate(-0 50.194375 16.318125)">Discrimination on the full test set</text>
   </g>
   <g id="legend_1">
    <g id="text_20">
     <text style="font-size: 6.5px; font-family: 'Arial', 'DejaVu Sans', 'Liberation Sans', 'Bitstream Vera Sans', sans-serif; text-anchor: start; fill: #262626" x="195.904492" y="122.392305" transform="rotate(-0 195.904492 122.392305)">ROC-AUC</text>
    </g>
    <g id="line2d_18">
     <path d="M 147.270938 133.962109 
L 158.270938 133.962109 
L 169.270938 133.962109 
" style="fill: none; stroke: #4b5563; stroke-width: 1.8; stroke-linecap: round"/>
    </g>
    <g id="text_21">
     <text style="font-size: 11px; font-family: 'Arial', 'DejaVu Sans', 'Liberation Sans', 'Bitstream Vera Sans', sans-serif; text-anchor: start; fill: #262626" x="178.070938" y="137.812109" transform="rotate(-0 178.070938 137.812109)">SVM (0.885)</text>
    </g>
    <g id="line2d_19">
     <path d="M 147.270938 150.462969 
L 158.270938 150.462969 
L 169.270938 150.462969 
" style="fill: none; stroke: #0f4d92; stroke-width: 1.8; stroke-linecap: round"/>
    </g>
    <g id="text_22">
     <text style="font-size: 11px; font-family: 'Arial', 'DejaVu Sans', 'Liberation Sans', 'Bitstream Vera Sans', sans-serif; text-anchor: start; fill: #262626" x="178.070938" y="154.312969" transform="rotate(-0 178.070938 154.312969)">RF (0.913)</text>
    </g>
    <g id="line2d_20">
     <path d="M 147.270938 166.963828 
L 158.270938 166.963828 
L 169.270938 166.963828 
" style="fill: none; stroke: #42949e; stroke-width: 1.8; stroke-linecap: round"/>
    </g>
    <g id="text_23">
     <text style="font-size: 11px; font-family: 'Arial', 'DejaVu Sans', 'Liberation Sans', 'Bitstream Vera Sans', sans-serif; text-anchor: start; fill: #262626" x="178.070938" y="170.813828" transform="rotate(-0 178.070938 170.813828)">XGBoost (0.890)</text>
    </g>
    <g id="line2d_21">
     <path d="M 147.270938 183.464687 
L 158.270938 183.464687 
L 169.270938 183.464687 
" style="fill: none; stroke: #9a4d8e; stroke-width: 1.8; stroke-linecap: round"/>
    </g>
    <g id="text_24">
     <text style="font-size: 11px; font-family: 'Arial', 'DejaVu Sans', 'Liberation Sans', 'Bitstream Vera Sans', sans-serif; text-anchor: start; fill: #262626" x="178.070938" y="187.314687" transform="rotate(-0 178.070938 187.314687)">LightGBM (0.884)</text>
    </g>
    <g id="line2d_22">
     <path d="M 147.270938 199.965547 
L 158.270938 199.965547 
L 169.270938 199.965547 
" style="fill: none; stroke-dasharray: 3.33,1.44; stroke-dashoffset: 0; stroke: #8f8f8f; stroke-width: 0.9"/>
    </g>
    <g id="text_25">
     <text style="font-size: 11px; font-family: 'Arial', 'DejaVu Sans', 'Liberation Sans', 'Bitstream Vera Sans', sans-serif; text-anchor: start; fill: #262626" x="178.070938" y="203.815547" transform="rotate(-0 178.070938 203.815547)">Random</text>
    </g>
   </g>
  </g>
 </g>
 <defs>
  <clipPath id="p589cd9a249">
   <rect x="50.194375" y="22.318125" width="234.36" height="194.04"/>
  </clipPath>
 </defs>
</svg>
